<svg xmlns="http://www.w3.org/2000/svg" viewBox="0 0 512 512">
  <defs>
    <linearGradient id="bgGradient" x1="0%" y1="0%" x2="100%" y2="100%">
      <stop offset="0%" style="stop-color:#3b82f6"/>
      <stop offset="100%" style="stop-color:#2563eb"/>
    </linearGradient>
    <linearGradient id="sparkleGradient" x1="0%" y1="0%" x2="100%" y2="100%">
      <stop offset="0%" style="stop-color:#ffffff"/>
      <stop offset="100%" style="stop-color:#e0e7ff"/>
    </linearGradient>
  </defs>

  <!-- Rounded square background -->
  <rect x="32" y="32" width="448" height="448" rx="96" ry="96" fill="url(#bgGradient)"/>

  <!-- Main sparkle (center) -->
  <path d="M256 128 L272 208 L352 224 L272 240 L256 320 L240 240 L160 224 L240 208 Z"
        fill="url(#sparkleGradient)"
        opacity="1"/>

  <!-- Small sparkle (top right) -->
  <path d="M368 96 L376 128 L408 136 L376 144 L368 176 L360 144 L328 136 L360 128 Z"
        fill="white"
        opacity="0.9"/>

  <!-- Small sparkle (bottom left) -->
  <path d="M144 336 L152 368 L184 376 L152 384 L144 416 L136 384 L104 376 L136 368 Z"
        fill="white"
        opacity="0.9"/>

  <!-- Tiny sparkle (top left) -->
  <circle cx="160" cy="144" r="12" fill="white" opacity="0.7"/>

  <!-- Tiny sparkle (bottom right) -->
  <circle cx="352" cy="368" r="12" fill="white" opacity="0.7"/>
</svg>
